<svg width="47" height="47" viewBox="0 0 47 47" fill="none" xmlns="http://www.w3.org/2000/svg">
<path d="M23.5 0C10.5603 0 0 10.5612 0 23.5C0 36.4397 10.5612 47 23.5 47C36.4397 47 47 36.4388 47 23.5C47 10.5603 36.4388 0 23.5 0ZM39.4396 10.2363C42.3734 13.7558 44.1644 18.2584 44.2415 23.1695C40.5641 22.3094 36.4801 22.2516 32.3208 23.0098C31.2385 23.2072 30.1562 23.4578 29.0803 23.7589C28.7223 22.7849 28.3423 21.8192 27.9384 20.8627C27.5262 19.8869 27.0911 18.9276 26.6358 17.9821C31.5919 16.0892 36.962 13.2711 39.4396 10.2363ZM23.5 2.75391C28.8995 2.75391 33.8226 4.8276 37.5174 8.21949C36.0762 10.1849 31.9692 13.0462 25.38 15.5137C23.0796 11.2304 20.3211 7.29418 17.1339 3.75449C19.1406 3.10549 21.2804 2.75391 23.5 2.75391ZM14.4075 4.85605C17.658 8.33791 20.4542 12.2264 22.7574 16.427C15.902 18.6458 8.96121 19.5509 3.2542 18.9662C4.644 12.7561 8.82535 7.58885 14.4075 4.85605ZM2.75391 23.5C2.75391 22.8905 2.78236 22.2874 2.83377 21.6916C4.09322 21.8247 5.40684 21.8917 6.76451 21.8917C12.119 21.8917 18.1345 20.8618 24.0416 18.9056C24.943 20.7507 25.7536 22.649 26.4687 24.5942C24.1655 25.4222 21.9238 26.4751 19.8189 27.7282C14.6581 30.8006 10.8825 34.7534 9.31646 38.6254C5.28016 34.8378 2.75391 29.4585 2.75391 23.5ZM23.5 44.2461C19.0671 44.2461 14.9546 42.848 11.5793 40.4696C12.6257 36.9336 16.1654 33.1084 21.228 30.0947C23.0116 29.0317 25.0973 28.0302 27.3674 27.2159C28.9766 32.2739 29.9625 37.6129 30.2755 43.1087C28.1513 43.8449 25.872 44.2461 23.5 44.2461ZM32.9615 41.9604C32.5796 36.6068 31.5827 31.3945 29.9827 26.3879C34.444 25.1615 39.3992 24.7503 44.0983 25.9693C43.2666 32.9468 38.9595 38.8732 32.9615 41.9604Z" fill="#F10919"/>
</svg>
