<svg width="27" height="47" viewBox="0 0 27 47" fill="none" xmlns="http://www.w3.org/2000/svg">
<path d="M25.248 0.00977914L19.1532 0C12.3059 0 7.88093 4.53996 7.88093 11.5668V16.8998H1.7529C1.22337 16.8998 0.794556 17.3291 0.794556 17.8587V25.5856C0.794556 26.1152 1.22386 26.544 1.7529 26.544H7.88093V46.0416C7.88093 46.5712 8.30974 47 8.83928 47H16.8346C17.3642 47 17.793 46.5707 17.793 46.0416V26.544H24.9581C25.4876 26.544 25.9164 26.1152 25.9164 25.5856L25.9193 17.8587C25.9193 17.6044 25.8181 17.3609 25.6387 17.181C25.4592 17.001 25.2148 16.8998 24.9605 16.8998H17.793V12.3789C17.793 10.206 18.3108 9.10291 21.1413 9.10291L25.247 9.10144C25.7761 9.10144 26.2049 8.67214 26.2049 8.14309V0.968135C26.2049 0.439572 25.7766 0.0107571 25.248 0.00977914Z" fill="#03A9F4"/>
</svg>
