<svg width="672" height="393" viewBox="0 0 672 393" fill="none" xmlns="http://www.w3.org/2000/svg">
<path d="M170.959 239.179C170.959 239.179 -129.478 321.108 66.2005 340.845C261.879 360.587 558.36 446.463 654.221 342.821C750.082 239.179 414.073 231.28 414.073 231.28L170.959 239.179Z" fill="#BABAC2"/>
<path opacity="0.51" d="M140.434 286.557C140.434 286.557 41.3593 344.791 210.884 348.743C380.408 352.695 399.124 316.168 478.381 337.886C557.639 359.599 597.821 359.108 579.658 338.874C561.495 318.64 524.616 293.467 484.987 279.652C445.358 265.832 427.743 235.232 338.577 247.077C249.417 258.921 140.434 286.557 140.434 286.557Z" fill="#3E3D4D"/>
<path d="M234.205 59.5355L223.581 75.3263C223.581 75.3263 212.957 87.4164 228.767 100.746C244.577 114.075 262.366 109.381 262.366 109.381L263.109 98.5241C263.109 98.5241 248.036 53.8589 244.331 49.9126C240.626 45.9663 234.205 59.5355 234.205 59.5355Z" fill="#F9A079"/>
<path d="M222.016 74.3383C222.016 74.3383 163.71 107.243 165.683 146.723C165.683 146.723 180.51 267.802 191.05 281.622C201.59 295.443 207.189 311.892 207.189 311.892C207.189 311.892 250.345 314.197 298.11 307.287C298.11 307.287 355.762 322.425 414.727 312.88L524.426 330.318C524.426 330.318 547.814 319.132 528.707 311.892C509.599 304.653 441.737 268.131 437.786 259.58C433.835 251.029 426.257 236.879 415.387 237.538C404.517 238.196 395.95 237.538 395.95 237.538C395.95 237.538 337.644 225.364 330.066 218.783C322.488 212.202 306.018 190.489 306.018 190.489C306.018 190.489 292.84 164.165 298.11 130.937C298.11 130.937 297.781 115.8 278.673 101.655L264.836 96.3919C264.841 96.3863 262.863 127.968 222.016 74.3383Z" fill="#F10919"/>
<path d="M220.697 92.7637C220.697 92.7637 222.675 119.087 258.252 122.375L250.674 145.405L229.264 148.693C229.264 148.693 199.287 115.459 220.697 94.7341" fill="#BF001C"/>
<path d="M221.357 108.393C221.357 108.393 244.085 125.668 259.901 120.728C259.901 120.728 272.252 142.938 257.923 156.262C243.594 169.585 248.534 209.562 273.733 221.406C298.937 233.256 206.038 279.646 199.12 275.209C192.201 270.766 154.646 174.531 175.893 145.902C197.141 117.273 193.687 100.003 221.357 108.393Z" fill="#BF001C"/>
<path d="M402.31 259.401L341.746 255.829C337.851 255.6 334.838 252.329 334.939 248.433L337.348 153.404C337.471 148.492 342.366 145.132 346.999 146.773L407.116 168.067C410.066 169.111 412.011 171.935 411.933 175.061L409.971 252.368C409.865 256.454 406.395 259.641 402.31 259.401Z" fill="#212133"/>
<path d="M405.21 259.401L344.646 255.829C340.751 255.6 337.739 252.329 337.84 248.433L340.248 153.404C340.371 148.492 345.267 145.132 349.9 146.773L410.016 168.067C412.967 169.111 414.912 171.935 414.833 175.061L412.872 252.368C412.771 256.454 409.295 259.641 405.21 259.401Z" fill="#3E3D4D"/>
<path d="M329.384 218.169C321.549 210.957 306.018 190.483 306.018 190.483C306.018 190.483 292.84 164.16 298.11 130.932C298.11 130.932 298.021 127.041 295.45 121.359C294.914 122.386 294.371 123.787 293.829 125.663C293.829 125.663 291.192 173.04 291.192 180.28C291.192 187.52 289.213 221.736 289.213 221.736L298.11 228.975L319.52 239.502C319.52 239.502 324.131 223.053 332.368 221.406C332.374 221.412 331.217 220.363 329.384 218.169Z" fill="#BF001C"/>
<path d="M290.538 250.286C290.935 250.091 291.331 249.901 291.739 249.717C309.606 241.601 337.482 245.849 337.482 245.849C362.189 238.693 358.73 221.914 358.73 221.914C339.952 226.357 319.196 221.669 319.196 221.669L295.478 229.969L290.538 250.286Z" fill="#F9A079"/>
<path d="M290.04 16.5951C290.04 16.5951 314.004 29.4276 311.042 46.7031C308.075 63.9786 306.594 62.4939 306.594 62.4939L300.91 66.4402C300.91 66.4402 302.391 76.5599 298.44 78.039L297.697 85.686L290.04 85.1949C290.04 85.1949 280.897 93.3386 276.946 104.692C276.946 104.692 235.686 78.5358 236.177 52.8709L241.118 23.5053C241.118 23.5053 246.058 8.45135 258.414 13.14C270.771 17.8287 290.04 16.5951 290.04 16.5951Z" fill="#F9A079"/>
<path d="M239.642 53.8589C239.642 53.8589 238.161 64.2242 247.053 64.961C247.053 64.961 254.961 97.0393 262.863 100.003C262.863 100.003 258.912 106.913 252.982 102.967C247.053 99.0209 226.297 75.3319 226.297 75.3319L239.642 53.8589Z" fill="#D37F59"/>
<path d="M270.771 81.9909C270.771 81.9909 254.961 68.9129 261.136 55.8348C267.312 42.7568 274.728 32.1459 274.728 32.1459C276.952 24.4989 260.644 17.8343 260.644 17.8343C258.314 14.6862 255.793 13.0172 253.368 12.219C251.133 13.2014 248.897 14.0945 246.583 14.7978C246.88 15.4341 247.019 16.1988 246.952 17.0919C246.354 24.7501 246.187 32.531 244.98 40.0831C246.114 39.1119 247.053 38.8049 247.053 38.8049C256.442 38.0625 256.688 53.8589 256.688 53.8589C235.194 73.1048 244.829 81.9909 244.829 81.9909C244.829 81.9909 262.371 103.955 273.984 106.913C285.597 109.877 290.046 85.2004 290.046 85.2004C278.433 88.4044 270.771 81.9909 270.771 81.9909Z" fill="#1F1F31"/>
<path d="M215.097 81.2486L182.482 109.213C182.482 109.213 204.552 97.0394 215.757 109.213C226.956 121.387 231.567 114.477 231.567 114.477C231.567 114.477 219.378 94.7341 221.686 80.2606C221.686 80.2606 222.346 73.6797 215.097 81.2486Z" fill="#BF001C"/>
<path d="M296.959 66.937L287.324 80.2606L290.091 85.2004L297.697 85.6916L298.44 78.0446C301.307 76.9729 301.313 71.3577 301.1 68.3491L299.921 67.4337L296.959 66.937Z" fill="#D37F59"/>
<path d="M524.426 330.318C524.426 330.318 537.106 337.39 540.074 324.557C540.074 324.557 546.495 322.581 531.674 318.144C516.853 313.706 524.426 330.318 524.426 330.318Z" fill="#F9A079"/>
<path d="M412.587 292.479C412.587 292.479 419.26 245.838 451.869 234.736C451.869 234.736 463.728 239.915 451.126 269.532C438.524 299.143 424.44 312.467 424.44 312.467C424.44 312.467 402.214 313.209 412.587 292.479Z" fill="#BF001C"/>
<path d="M528.712 311.892C509.605 304.653 441.743 268.131 437.791 259.58C433.84 251.023 426.262 236.879 415.392 237.538C409.826 237.873 404.875 237.867 401.359 237.778C398.962 239.525 397.52 240.909 397.52 240.909L320.928 258.43C327.266 280.986 368.862 302.799 396.604 315.085C402.589 314.583 408.653 313.863 414.733 312.88L524.431 330.318C524.426 330.318 547.82 319.132 528.712 311.892Z" fill="#000040"/>
<path d="M355.103 227.334C355.103 227.334 355.857 230.94 355.404 234.635C360.004 228.144 358.73 221.903 358.73 221.903C339.952 226.346 319.196 221.658 319.196 221.658L295.478 229.969L293.69 237.309L298.278 237.699L298.608 231.119L320.677 225.034C320.677 225.029 342.255 232.598 355.103 227.334Z" fill="#D37F59"/>
<path d="M222.675 126.985C222.675 126.985 214.108 210.226 217.405 210.885C220.697 211.543 256.609 229.639 295.478 229.969L292.186 250.699C292.186 250.699 207.525 264.52 178.866 239.843C178.866 239.843 147.9 143.77 180.845 107.907C180.839 107.901 218.724 82.2365 222.675 126.985Z" fill="#F10919"/>
<path d="M450.813 318.618C450.226 317.597 449.606 316.547 448.907 315.431C417.035 264.352 379.978 282.119 379.978 282.119L396.604 315.085C402.589 314.583 408.653 313.862 414.733 312.88L450.813 318.618Z" fill="#00002D"/>
<path d="M407.647 299.886C407.647 299.886 416.046 293.472 421.484 300.874C426.922 308.275 419.014 309.76 419.014 309.76L407.647 299.886Z" fill="#D37F59"/>
<path d="M409.575 313.65C411.151 312.724 412.889 312.115 414.811 311.976C428.403 310.988 407.647 296.185 407.647 296.185L390.104 289.275C390.104 289.275 345.881 266.574 323.393 247.077C300.91 227.58 280.406 242.143 280.406 242.143L230.499 268.053L195.168 285.82L195.04 287.31C202.998 299.579 207.195 311.898 207.195 311.898C207.195 311.898 250.35 314.203 298.116 307.293C298.116 307.287 352.448 321.549 409.575 313.65Z" fill="#0000E1"/>
<path d="M415.677 209.69C415.677 209.69 405.545 214.625 402.829 223.265C402.829 223.265 401.102 231.654 408.267 231.163C415.432 230.667 415.677 209.69 415.677 209.69Z" fill="#D37F59"/>
<path d="M574.667 299.635L577.635 301.856C577.635 301.856 560.59 341.341 545.763 347.013C545.763 347.013 538.844 345.288 536.374 341.336C533.904 337.384 574.667 299.635 574.667 299.635Z" fill="white"/>
<path d="M542.298 320.365C542.298 320.365 536.123 331.964 528.215 332.455C528.215 332.455 533.653 344.3 540.32 344.791C540.32 344.791 546.741 347.258 563.792 318.635L574.662 299.635C574.667 299.635 566.268 296.431 542.298 320.365Z" fill="#F10919"/>
<path d="M551.396 320.555L551.821 319.684C549.725 318.668 548.295 317.072 547.328 315.531C547.082 315.76 546.842 315.978 546.59 316.212C547.63 317.82 549.155 319.472 551.396 320.555Z" fill="#0000E1"/>
<path d="M554.297 314.756L554.721 313.885C553.498 313.293 552.508 312.501 551.698 311.641C551.452 311.853 551.206 312.06 550.949 312.283C551.838 313.221 552.933 314.097 554.297 314.756Z" fill="#0000E1"/>
<path d="M557.924 310.809L558.349 309.939C557.387 309.475 556.571 308.889 555.867 308.242C555.616 308.437 555.353 308.649 555.096 308.85C555.884 309.592 556.812 310.268 557.924 310.809Z" fill="#0000E1"/>
<path d="M414.811 311.976C417.835 311.758 419.154 310.848 419.383 309.576C419.254 309.637 419.142 309.687 419.014 309.754C387.388 326.042 296.965 296.431 296.965 296.431L219.289 312.227C235.412 312.422 265.696 311.981 298.116 307.287C298.116 307.287 352.448 321.549 409.575 313.65C411.151 312.724 412.889 312.115 414.811 311.976Z" fill="#000040"/>
<path d="M207.195 311.892C207.195 311.892 209.162 311.998 212.711 312.093C210.397 310.703 208.257 309.866 206.284 309.447C206.888 310.993 207.195 311.892 207.195 311.892Z" fill="#000040"/>
<path d="M347.267 264.492C338.549 258.849 330.027 252.826 323.399 247.077C300.916 227.58 280.411 242.143 280.411 242.143L266.395 249.416C281.138 248.467 309.047 249.667 347.267 264.492Z" fill="#29ABE2"/>
<path d="M277.896 240.658C234.166 251.023 185.78 234.244 185.78 234.244C162.553 181.681 188.004 114.315 188.004 114.315C188.004 114.315 177.218 117.441 173.261 130.602C169.31 143.764 167.991 162.19 167.991 162.19C167.991 162.19 172.931 229.639 182.158 238.849C182.158 238.849 204.557 253.658 255.95 251.352L277.896 240.658Z" fill="#BF001C"/>
<path d="M245.572 44.9728C245.572 44.9728 240.134 50.6494 244.091 54.5957C248.042 58.542 252.491 55.8293 252.491 55.8293C252.491 55.8293 254.715 41.2721 245.572 44.9728Z" fill="#D37F59"/>
<path d="M292.762 65.2122C292.762 65.2122 298.937 70.3921 291.773 78.2902C284.608 86.1884 297.456 75.0807 297.456 75.0807L302.397 69.1585L303.386 66.9369L289.794 63.4818L292.762 65.2122Z" fill="#D37F59"/>
<path d="M307.992 71.3902C309.674 68.4803 309.365 65.1568 307.302 63.9669C305.238 62.7769 302.202 64.1712 300.52 67.0811C298.837 69.991 299.147 73.3146 301.21 74.5045C303.273 75.6945 306.31 74.3001 307.992 71.3902Z" fill="#1F1F31"/>
<path d="M284.278 69.6497C288.553 69.6497 292.019 66.1885 292.019 61.919C292.019 57.6494 288.553 54.1882 284.278 54.1882C280.004 54.1882 276.538 57.6494 276.538 61.919C276.538 66.1885 280.004 69.6497 284.278 69.6497Z" fill="#D37F59"/>
<path d="M306.32 70.8386L300.569 70.5818L300.653 68.7064C293.774 64.0065 287.509 64.8996 287.442 64.9108L287.14 63.0018C287.492 62.946 295.791 61.7124 304.224 69.019L306.32 70.8386Z" fill="#1F1F31"/>
<path d="M279.83 17.9124L268.463 26.3018L260.89 55.0925C260.89 55.0925 275.219 31.2361 277.857 30.4155C277.857 30.4155 292.024 41.4395 308.494 41.4395C308.494 41.4395 309.768 43.8173 310.997 46.971C311.014 46.8817 311.031 46.798 311.042 46.7031C312.261 39.6143 308.935 33.2734 304.599 28.261L279.83 17.9124Z" fill="#D37F59"/>
<path d="M253.245 13.9047C253.245 13.9047 257.274 -6.05561 294.416 1.85373C331.558 9.76308 332.843 25.8441 318.587 37.5155C304.33 49.187 253.245 13.9047 253.245 13.9047Z" fill="#1F1F31"/>
<path d="M285.759 69.6497C290.034 69.6497 293.5 66.1885 293.5 61.919C293.5 57.6494 290.034 54.1882 285.759 54.1882C281.485 54.1882 278.019 57.6494 278.019 61.919C278.019 66.1885 281.485 69.6497 285.759 69.6497Z" fill="#1F1F31"/>
<path d="M241.123 50.8168C241.123 50.8168 240.794 59.703 249.361 63.6493C257.928 67.5956 239.642 68.4217 239.642 68.4217L238.324 50.4875L241.123 50.8168Z" fill="#D37F59"/>
<path d="M270.771 81.9909C270.771 81.9909 254.961 68.9129 261.136 55.8348C267.312 42.7568 274.728 32.1459 274.728 32.1459C276.952 24.4989 260.644 17.8343 260.644 17.8343C258.353 14.742 255.883 13.0675 253.497 12.2581C244.739 12.5316 241.123 23.5109 241.123 23.5109L236.183 52.8765C236.15 54.6515 236.323 56.4321 236.658 58.2015C239.156 55.9688 240.911 52.9212 241.123 49.1702C241.615 40.5353 247.053 38.8049 247.053 38.8049C256.442 38.0625 256.688 53.8589 256.688 53.8589C247.561 62.0306 244.057 68.3268 243.035 72.8759C254.648 90.5589 276.946 104.697 276.946 104.697C280.897 93.3442 290.04 85.2004 290.04 85.2004C278.433 88.4044 270.771 81.9909 270.771 81.9909Z" fill="#1F1F31"/>
<path d="M380.967 205.867C385.059 205.867 388.377 202.553 388.377 198.465C388.377 194.378 385.059 191.064 380.967 191.064C376.874 191.064 373.556 194.378 373.556 198.465C373.556 202.553 376.874 205.867 380.967 205.867Z" fill="#A9A9B2"/>
<path d="M140.875 256.209H138.567H97.7202L121.108 319.048H138.567H140.875H158.334L181.722 256.209H140.875Z" fill="#3E3D4D"/>
<path d="M139.724 258.676C162.814 258.676 181.532 257.719 181.532 256.538C181.532 255.357 162.814 254.4 139.724 254.4C116.634 254.4 97.9158 255.357 97.9158 256.538C97.9158 257.719 116.634 258.676 139.724 258.676Z" fill="#2E2E3A"/>
<path d="M103.342 260.975C103.342 260.975 121.343 263.599 155.143 263.029C155.143 263.029 142.597 275.002 147.71 294.84C152.824 314.677 154.562 315.135 154.562 315.135L124.942 315.593L103.342 260.975Z" fill="#535266"/>
<path d="M152.427 45.2239C152.427 45.2239 74.6008 142.944 135.382 256.951C135.382 256.951 218.395 214.753 182.081 8.9537L152.427 45.2239Z" fill="#FFC601"/>
<path d="M135.376 256.945C135.376 256.945 136.147 256.555 137.5 255.667C130.179 136.14 160.022 52.7705 180.051 11.4208L152.427 45.2239C152.427 45.2239 74.6002 142.938 135.376 256.945Z" fill="#FF931E"/>
<path opacity="0.57" d="M413.699 182.92C423.32 182.92 431.119 175.131 431.119 165.522C431.119 155.913 423.32 148.124 413.699 148.124C404.078 148.124 396.279 155.913 396.279 165.522C396.279 175.131 404.078 182.92 413.699 182.92Z" fill="#0000E1"/>
<path opacity="0.53" d="M415.37 188.094C420.793 188.094 425.189 183.704 425.189 178.287C425.189 172.871 420.793 168.48 415.37 168.48C409.947 168.48 405.551 172.871 405.551 178.287C405.551 183.704 409.947 188.094 415.37 188.094Z" fill="#F10919"/>
</svg>
