<svg width="383" height="129" viewBox="0 0 383 129" fill="none" xmlns="http://www.w3.org/2000/svg">
<path fill-rule="evenodd" clip-rule="evenodd" d="M17.9017 0H381.939C382.176 1.44009 382.278 2.21347 382.278 2.21347C382.278 2.21347 374.827 132.328 177.24 101.895C82.5471 87.3094 29.5342 105.695 0 128.799V18.6655C5.95764 12.3582 11.9275 6.13062 17.9017 0Z" fill="#C5C5CA"/>
<path fill-rule="evenodd" clip-rule="evenodd" d="M247.53 1.36111e-05H1V122.098C23.2632 113.494 50.5364 106.359 83.9362 101.643C196.122 85.8039 234.947 38.2415 247.53 1.36111e-05ZM122.784 -165H85.1362C94.8937 -167.389 104.633 -167.967 114.327 -166.524C117.192 -166.097 120.01 -165.588 122.784 -165Z" fill="#03A9F4"/>
<path fill-rule="evenodd" clip-rule="evenodd" d="M1 89.8904V0H333.075C324.972 32.1756 288.815 111.06 130.327 86.6484C73.5344 77.9008 31.7342 81.0132 1 89.8904Z" fill="#F10919"/>
</svg>
